<svg xmlns="http://www.w3.org/2000/svg" viewBox="0 0 200 200"><defs><style>.cls-1{fill:#0070e1;}.cls-2{fill:#fff;}.cls-3{fill:#202020;}.cls-4{fill:#ffc7db;}.cls-5{fill:#ff727f;}</style></defs><title>spot</title><g id="Layer_70" data-name="Layer 70"><polygon class="cls-1" points="149.93 27.46 79.66 19.92 66.84 125.3 137.12 132.84 149.93 27.46"/><polygon class="cls-2" points="121.67 29.91 51.59 36.89 61.95 142.27 132.22 135.48 121.67 29.91"/><path class="cls-3" d="M122.61,33.31l5.65,50.9c1.89,17.53,3.58,34.87,5.65,52.41-24.3,2.45-48.79,4.71-73.28,7.35l-5.47-54.3c-1.69-17.91-3.2-36-5.08-53.91,22.61-2.08,45.4-4.15,68-6.22,4.33-.38,4.71.56.19,1.13L52.72,38l5.46,51.47,5.27,51.27c22.42-2.07,45-4.33,67.45-6.41-1.51-16.59-3.2-33.18-4.71-49.77-1.51-17.15-3-33.93-4.52-51.08C120.91,28.59,122,28.78,122.61,33.31Z"/><rect class="cls-4" x="66.09" y="44.34" width="69.71" height="101.8"/><path class="cls-3" d="M123.93,59a285,285,0,0,1-47.29,0c-.56,0-.56-1.14,0-1.14a304.72,304.72,0,0,1,47.29,0C124.68,57.81,124.49,59,123.93,59Z"/><path class="cls-3" d="M123.93,70.45a285,285,0,0,1-47.29,0c-.56,0-.56-1.14,0-1.14a304.72,304.72,0,0,1,47.29,0C124.68,69.31,124.49,70.45,123.93,70.45Z"/><path class="cls-5" d="M136.08,114.1H103.4L84.31,102.79H58.55a11.35,11.35,0,0,0-11.3,11.31h0v66h105.5V130.73C152.37,121.47,145.17,114.1,136.08,114.1Z"/><path class="cls-3" d="M98.68,126.25c2.08-4,4.15-7.73,6-11.69a35.21,35.21,0,0,0,2.64-6,17.52,17.52,0,0,0,1.32-6,3.47,3.47,0,0,0-.76-2.45,8.36,8.36,0,0,0-2.07-1.51,2.86,2.86,0,0,0-2.45-.18,4.44,4.44,0,0,0-2.45,1.32c-2.82,2.63-4.71,6.78-7.15,10.55l-6.6,11.31L84,127.19a18.3,18.3,0,0,0-2.07,5.66,9.62,9.62,0,0,0,.56,5.65,11.17,11.17,0,0,0,3.2,4.71A10.49,10.49,0,0,0,91,145.66a8.52,8.52,0,0,0,5.65-.75,16.31,16.31,0,0,0,4.71-3.58,35.1,35.1,0,0,0,3.58-5.09c2.45-3.58,4.71-7.35,6.78-11.12s4.15-7.54,6-11.5l1.32-2.83c.38-.94.75-2.08,1.13-3,.57-2.07,1.32-4,1.32-6A13.92,13.92,0,0,0,116.77,91a16.37,16.37,0,0,0-5.28-3.2,21.3,21.3,0,0,0-6-1.32,23.38,23.38,0,0,0-6.22.56,16,16,0,0,0-5.65,2.83c-3.21,2.45-5.65,6.41-7.16,10.37-.57,1.32-.94,1.7-1.13,1.7s-.38-.76.19-2.08c1.5-4.14,3.76-8.29,7.34-11.12a20.41,20.41,0,0,1,6-3.2,27.78,27.78,0,0,1,6.78-1,17.45,17.45,0,0,1,6.79,1.32,22.21,22.21,0,0,1,6,3.59,16.44,16.44,0,0,1,5.66,12.44,25.65,25.65,0,0,1-1.32,6.78c-.38,1.14-.76,2.08-1.13,3.21l-1.32,3c-1.7,4-4,7.91-6,11.87q-3.1,5.66-6.78,11.31c-1.13,1.7-2.45,3.77-4,5.66a21.69,21.69,0,0,1-5.65,4.34,13.83,13.83,0,0,1-7.35.94A16.57,16.57,0,0,1,84,145.85a12.54,12.54,0,0,1-4.15-6,15.47,15.47,0,0,1-.56-7.16,21,21,0,0,1,2.45-6.79l3.39-5.66L91.9,108.9l3.39-5.65A23,23,0,0,1,99.63,98a9.48,9.48,0,0,1,3.39-1.7,7,7,0,0,1,4,.57,7.59,7.59,0,0,1,3,2.45,6.69,6.69,0,0,1,1.13,3.58,16.49,16.49,0,0,1-1.7,6.79c-.94,2.07-1.88,4-3,6-2.07,3.77-4.34,7.54-6.6,11.31C98.31,129.45,97.36,128.7,98.68,126.25Z"/></g></svg>